<svg width="566" height="181" viewBox="0 0 866 181" fill="none" xmlns="http://www.w3.org/2000/svg">
<path d="M235.287 119.36C232.455 119.36 229.647 118.88 226.863 117.92C224.079 116.96 221.823 115.52 220.095 113.6C219.567 113.024 219.351 112.376 219.447 111.656C219.543 110.936 219.903 110.312 220.527 109.784C221.199 109.304 221.895 109.112 222.615 109.208C223.335 109.304 223.935 109.616 224.415 110.144C225.567 111.488 227.079 112.52 228.951 113.24C230.871 113.96 232.983 114.32 235.287 114.32C238.839 114.32 241.407 113.72 242.991 112.52C244.575 111.272 245.391 109.784 245.439 108.056C245.439 106.328 244.623 104.912 242.991 103.808C241.359 102.656 238.671 101.768 234.927 101.144C230.079 100.376 226.527 99.032 224.271 97.112C222.015 95.192 220.887 92.912 220.887 90.272C220.887 87.824 221.535 85.784 222.831 84.152C224.127 82.52 225.855 81.296 228.015 80.48C230.175 79.664 232.551 79.256 235.143 79.256C238.359 79.256 241.119 79.808 243.423 80.912C245.775 82.016 247.671 83.504 249.111 85.376C249.591 86 249.783 86.648 249.687 87.32C249.591 87.992 249.207 88.544 248.535 88.976C247.959 89.312 247.287 89.432 246.519 89.336C245.799 89.192 245.175 88.832 244.647 88.256C243.447 86.864 242.055 85.856 240.471 85.232C238.887 84.56 237.063 84.224 234.999 84.224C232.359 84.224 230.247 84.776 228.663 85.88C227.079 86.936 226.287 88.28 226.287 89.912C226.287 91.016 226.575 91.976 227.151 92.792C227.775 93.608 228.807 94.328 230.247 94.952C231.735 95.576 233.799 96.104 236.439 96.536C240.039 97.112 242.871 97.976 244.935 99.128C247.047 100.232 248.535 101.552 249.399 103.088C250.311 104.576 250.767 106.208 250.767 107.984C250.767 110.24 250.095 112.232 248.751 113.96C247.455 115.64 245.631 116.96 243.279 117.92C240.975 118.88 238.311 119.36 235.287 119.36ZM277.195 119.36C273.355 119.36 269.923 118.496 266.899 116.768C263.875 115.04 261.499 112.664 259.771 109.64C258.043 106.616 257.179 103.184 257.179 99.344C257.179 95.456 258.043 92 259.771 88.976C261.499 85.952 263.875 83.576 266.899 81.848C269.923 80.12 273.355 79.256 277.195 79.256C281.036 79.256 284.444 80.12 287.42 81.848C290.444 83.576 292.82 85.952 294.548 88.976C296.276 92 297.164 95.456 297.212 99.344C297.212 103.184 296.324 106.616 294.548 109.64C292.82 112.664 290.444 115.04 287.42 116.768C284.444 118.496 281.036 119.36 277.195 119.36ZM277.195 114.32C279.979 114.32 282.475 113.672 284.683 112.376C286.891 111.08 288.62 109.304 289.868 107.048C291.115 104.792 291.739 102.224 291.739 99.344C291.739 96.464 291.115 93.896 289.868 91.64C288.62 89.336 286.891 87.536 284.683 86.24C282.475 84.944 279.979 84.296 277.195 84.296C274.411 84.296 271.915 84.944 269.707 86.24C267.499 87.536 265.747 89.336 264.451 91.64C263.203 93.896 262.579 96.464 262.579 99.344C262.579 102.224 263.203 104.792 264.451 107.048C265.747 109.304 267.499 111.08 269.707 112.376C271.915 113.672 274.411 114.32 277.195 114.32ZM344.28 119.36C340.584 119.36 337.272 118.496 334.344 116.768C331.416 114.992 329.088 112.592 327.36 109.568C325.68 106.544 324.84 103.136 324.84 99.344C324.84 95.504 325.704 92.072 327.432 89.048C329.208 86.024 331.608 83.648 334.632 81.92C337.656 80.144 341.064 79.256 344.856 79.256C348.648 79.256 352.032 80.144 355.008 81.92C358.032 83.648 360.408 86.024 362.136 89.048C363.912 92.072 364.824 95.504 364.872 99.344L362.64 101.072C362.64 104.528 361.824 107.648 360.192 110.432C358.608 113.168 356.424 115.352 353.64 116.984C350.904 118.568 347.784 119.36 344.28 119.36ZM344.856 114.32C347.64 114.32 350.112 113.672 352.272 112.376C354.48 111.08 356.208 109.304 357.456 107.048C358.752 104.744 359.4 102.176 359.4 99.344C359.4 96.464 358.752 93.896 357.456 91.64C356.208 89.384 354.48 87.608 352.272 86.312C350.112 84.968 347.64 84.296 344.856 84.296C342.12 84.296 339.648 84.968 337.44 86.312C335.232 87.608 333.48 89.384 332.184 91.64C330.888 93.896 330.24 96.464 330.24 99.344C330.24 102.176 330.888 104.744 332.184 107.048C333.48 109.304 335.232 111.08 337.44 112.376C339.648 113.672 342.12 114.32 344.856 114.32ZM362.064 119C361.248 119 360.576 118.76 360.048 118.28C359.52 117.752 359.256 117.08 359.256 116.264V103.952L360.624 98.264L364.872 99.344V116.264C364.872 117.08 364.608 117.752 364.08 118.28C363.552 118.76 362.88 119 362.064 119ZM388.326 119.36C385.494 119.36 382.686 118.88 379.902 117.92C377.118 116.96 374.862 115.52 373.134 113.6C372.606 113.024 372.39 112.376 372.486 111.656C372.582 110.936 372.942 110.312 373.566 109.784C374.238 109.304 374.934 109.112 375.654 109.208C376.374 109.304 376.974 109.616 377.454 110.144C378.606 111.488 380.118 112.52 381.99 113.24C383.91 113.96 386.022 114.32 388.326 114.32C391.878 114.32 394.446 113.72 396.03 112.52C397.614 111.272 398.43 109.784 398.478 108.056C398.478 106.328 397.662 104.912 396.03 103.808C394.398 102.656 391.71 101.768 387.966 101.144C383.118 100.376 379.566 99.032 377.31 97.112C375.054 95.192 373.926 92.912 373.926 90.272C373.926 87.824 374.574 85.784 375.87 84.152C377.166 82.52 378.894 81.296 381.054 80.48C383.214 79.664 385.59 79.256 388.182 79.256C391.398 79.256 394.158 79.808 396.462 80.912C398.814 82.016 400.71 83.504 402.15 85.376C402.63 86 402.822 86.648 402.726 87.32C402.63 87.992 402.246 88.544 401.574 88.976C400.998 89.312 400.326 89.432 399.558 89.336C398.838 89.192 398.214 88.832 397.686 88.256C396.486 86.864 395.094 85.856 393.51 85.232C391.926 84.56 390.102 84.224 388.038 84.224C385.398 84.224 383.286 84.776 381.702 85.88C380.118 86.936 379.326 88.28 379.326 89.912C379.326 91.016 379.614 91.976 380.19 92.792C380.814 93.608 381.846 94.328 383.286 94.952C384.774 95.576 386.838 96.104 389.478 96.536C393.078 97.112 395.91 97.976 397.974 99.128C400.086 100.232 401.574 101.552 402.438 103.088C403.35 104.576 403.806 106.208 403.806 107.984C403.806 110.24 403.134 112.232 401.79 113.96C400.494 115.64 398.67 116.96 396.318 117.92C394.014 118.88 391.35 119.36 388.326 119.36ZM426.059 119.36C423.227 119.36 420.419 118.88 417.635 117.92C414.851 116.96 412.595 115.52 410.867 113.6C410.339 113.024 410.123 112.376 410.219 111.656C410.315 110.936 410.675 110.312 411.299 109.784C411.971 109.304 412.667 109.112 413.387 109.208C414.107 109.304 414.707 109.616 415.187 110.144C416.339 111.488 417.851 112.52 419.723 113.24C421.643 113.96 423.755 114.32 426.059 114.32C429.611 114.32 432.179 113.72 433.763 112.52C435.347 111.272 436.163 109.784 436.211 108.056C436.211 106.328 435.395 104.912 433.763 103.808C432.131 102.656 429.443 101.768 425.699 101.144C420.851 100.376 417.299 99.032 415.043 97.112C412.787 95.192 411.659 92.912 411.659 90.272C411.659 87.824 412.307 85.784 413.603 84.152C414.899 82.52 416.627 81.296 418.787 80.48C420.947 79.664 423.323 79.256 425.915 79.256C429.131 79.256 431.891 79.808 434.195 80.912C436.547 82.016 438.443 83.504 439.883 85.376C440.363 86 440.555 86.648 440.459 87.32C440.363 87.992 439.979 88.544 439.307 88.976C438.731 89.312 438.059 89.432 437.291 89.336C436.571 89.192 435.947 88.832 435.419 88.256C434.219 86.864 432.827 85.856 431.243 85.232C429.659 84.56 427.835 84.224 425.771 84.224C423.131 84.224 421.019 84.776 419.435 85.88C417.851 86.936 417.059 88.28 417.059 89.912C417.059 91.016 417.347 91.976 417.923 92.792C418.547 93.608 419.579 94.328 421.019 94.952C422.507 95.576 424.571 96.104 427.211 96.536C430.811 97.112 433.643 97.976 435.707 99.128C437.819 100.232 439.307 101.552 440.171 103.088C441.083 104.576 441.539 106.208 441.539 107.984C441.539 110.24 440.867 112.232 439.523 113.96C438.227 115.64 436.403 116.96 434.051 117.92C431.747 118.88 429.083 119.36 426.059 119.36ZM453.999 119C453.135 119 452.439 118.76 451.911 118.28C451.431 117.752 451.191 117.056 451.191 116.192V82.424C451.191 81.56 451.431 80.888 451.911 80.408C452.439 79.88 453.135 79.616 453.999 79.616C454.815 79.616 455.463 79.88 455.943 80.408C456.471 80.888 456.735 81.56 456.735 82.424V116.192C456.735 117.056 456.471 117.752 455.943 118.28C455.463 118.76 454.815 119 453.999 119ZM453.927 72.128C452.871 72.128 451.959 71.744 451.191 70.976C450.423 70.208 450.039 69.272 450.039 68.168C450.039 66.968 450.423 66.032 451.191 65.36C452.007 64.64 452.943 64.28 453.999 64.28C455.007 64.28 455.895 64.64 456.663 65.36C457.479 66.032 457.887 66.968 457.887 68.168C457.887 69.272 457.503 70.208 456.735 70.976C455.967 71.744 455.031 72.128 453.927 72.128ZM483.524 119.36C480.692 119.36 477.884 118.88 475.1 117.92C472.316 116.96 470.06 115.52 468.332 113.6C467.804 113.024 467.588 112.376 467.684 111.656C467.78 110.936 468.14 110.312 468.764 109.784C469.436 109.304 470.132 109.112 470.852 109.208C471.572 109.304 472.172 109.616 472.652 110.144C473.804 111.488 475.316 112.52 477.188 113.24C479.108 113.96 481.22 114.32 483.524 114.32C487.076 114.32 489.644 113.72 491.228 112.52C492.812 111.272 493.628 109.784 493.676 108.056C493.676 106.328 492.86 104.912 491.228 103.808C489.596 102.656 486.908 101.768 483.164 101.144C478.316 100.376 474.764 99.032 472.508 97.112C470.252 95.192 469.124 92.912 469.124 90.272C469.124 87.824 469.772 85.784 471.068 84.152C472.364 82.52 474.092 81.296 476.252 80.48C478.412 79.664 480.788 79.256 483.38 79.256C486.596 79.256 489.356 79.808 491.66 80.912C494.012 82.016 495.908 83.504 497.348 85.376C497.828 86 498.02 86.648 497.924 87.32C497.828 87.992 497.444 88.544 496.772 88.976C496.196 89.312 495.524 89.432 494.756 89.336C494.036 89.192 493.412 88.832 492.884 88.256C491.684 86.864 490.292 85.856 488.708 85.232C487.124 84.56 485.3 84.224 483.236 84.224C480.596 84.224 478.484 84.776 476.9 85.88C475.316 86.936 474.524 88.28 474.524 89.912C474.524 91.016 474.812 91.976 475.388 92.792C476.012 93.608 477.044 94.328 478.484 94.952C479.972 95.576 482.036 96.104 484.676 96.536C488.276 97.112 491.108 97.976 493.172 99.128C495.284 100.232 496.772 101.552 497.636 103.088C498.548 104.576 499.004 106.208 499.004 107.984C499.004 110.24 498.332 112.232 496.988 113.96C495.692 115.64 493.868 116.96 491.516 117.92C489.212 118.88 486.548 119.36 483.524 119.36ZM522.912 119C520.368 119 518.088 118.4 516.072 117.2C514.104 116 512.544 114.368 511.392 112.304C510.24 110.192 509.664 107.792 509.664 105.104V69.896C509.664 69.08 509.904 68.408 510.384 67.88C510.912 67.352 511.584 67.088 512.4 67.088C513.216 67.088 513.888 67.352 514.416 67.88C514.944 68.408 515.208 69.08 515.208 69.896V105.104C515.208 107.552 515.928 109.568 517.368 111.152C518.808 112.688 520.656 113.456 522.912 113.456H524.856C525.624 113.456 526.248 113.72 526.728 114.248C527.208 114.776 527.448 115.448 527.448 116.264C527.448 117.08 527.16 117.752 526.584 118.28C526.008 118.76 525.288 119 524.424 119H522.912ZM504.984 85.88C504.264 85.88 503.664 85.664 503.184 85.232C502.704 84.752 502.464 84.176 502.464 83.504C502.464 82.784 502.704 82.208 503.184 81.776C503.664 81.296 504.264 81.056 504.984 81.056H523.344C524.064 81.056 524.664 81.296 525.144 81.776C525.624 82.208 525.864 82.784 525.864 83.504C525.864 84.176 525.624 84.752 525.144 85.232C524.664 85.664 524.064 85.88 523.344 85.88H504.984ZM552.745 119.36C549.049 119.36 545.737 118.496 542.809 116.768C539.881 114.992 537.553 112.592 535.825 109.568C534.145 106.544 533.305 103.136 533.305 99.344C533.305 95.504 534.169 92.072 535.897 89.048C537.673 86.024 540.073 83.648 543.097 81.92C546.121 80.144 549.529 79.256 553.321 79.256C557.113 79.256 560.497 80.144 563.473 81.92C566.497 83.648 568.873 86.024 570.601 89.048C572.377 92.072 573.289 95.504 573.337 99.344L571.105 101.072C571.105 104.528 570.289 107.648 568.657 110.432C567.073 113.168 564.889 115.352 562.105 116.984C559.369 118.568 556.249 119.36 552.745 119.36ZM553.321 114.32C556.105 114.32 558.577 113.672 560.737 112.376C562.945 111.08 564.673 109.304 565.921 107.048C567.217 104.744 567.865 102.176 567.865 99.344C567.865 96.464 567.217 93.896 565.921 91.64C564.673 89.384 562.945 87.608 560.737 86.312C558.577 84.968 556.105 84.296 553.321 84.296C550.585 84.296 548.113 84.968 545.905 86.312C543.697 87.608 541.945 89.384 540.649 91.64C539.353 93.896 538.705 96.464 538.705 99.344C538.705 102.176 539.353 104.744 540.649 107.048C541.945 109.304 543.697 111.08 545.905 112.376C548.113 113.672 550.585 114.32 553.321 114.32ZM570.529 119C569.713 119 569.041 118.76 568.513 118.28C567.985 117.752 567.721 117.08 567.721 116.264V103.952L569.089 98.264L573.337 99.344V116.264C573.337 117.08 573.073 117.752 572.545 118.28C572.017 118.76 571.345 119 570.529 119ZM616.808 119C615.992 119 615.32 118.736 614.792 118.208C614.264 117.68 614 117.032 614 116.264V97.544C614 94.568 613.424 92.12 612.272 90.2C611.168 88.28 609.632 86.84 607.664 85.88C605.744 84.92 603.56 84.44 601.112 84.44C598.76 84.44 596.624 84.896 594.704 85.808C592.832 86.72 591.344 87.968 590.24 89.552C589.136 91.136 588.584 92.936 588.584 94.952H584.624C584.72 91.928 585.536 89.24 587.072 86.888C588.608 84.488 590.648 82.616 593.192 81.272C595.736 79.88 598.568 79.184 601.688 79.184C605.096 79.184 608.144 79.904 610.832 81.344C613.52 82.736 615.632 84.8 617.168 87.536C618.752 90.272 619.544 93.608 619.544 97.544V116.264C619.544 117.032 619.28 117.68 618.752 118.208C618.224 118.736 617.576 119 616.808 119ZM585.848 119C584.984 119 584.288 118.76 583.76 118.28C583.28 117.752 583.04 117.08 583.04 116.264V82.424C583.04 81.56 583.28 80.888 583.76 80.408C584.288 79.88 584.984 79.616 585.848 79.616C586.664 79.616 587.312 79.88 587.792 80.408C588.32 80.888 588.584 81.56 588.584 82.424V116.264C588.584 117.08 588.32 117.752 587.792 118.28C587.312 118.76 586.664 119 585.848 119ZM646.094 119C643.55 119 641.27 118.4 639.254 117.2C637.286 116 635.726 114.368 634.574 112.304C633.422 110.192 632.846 107.792 632.846 105.104V69.896C632.846 69.08 633.086 68.408 633.566 67.88C634.094 67.352 634.766 67.088 635.582 67.088C636.398 67.088 637.07 67.352 637.598 67.88C638.126 68.408 638.39 69.08 638.39 69.896V105.104C638.39 107.552 639.11 109.568 640.55 111.152C641.99 112.688 643.838 113.456 646.094 113.456H648.038C648.806 113.456 649.43 113.72 649.91 114.248C650.39 114.776 650.63 115.448 650.63 116.264C650.63 117.08 650.342 117.752 649.766 118.28C649.19 118.76 648.47 119 647.606 119H646.094ZM628.166 85.88C627.446 85.88 626.846 85.664 626.366 85.232C625.886 84.752 625.646 84.176 625.646 83.504C625.646 82.784 625.886 82.208 626.366 81.776C626.846 81.296 627.446 81.056 628.166 81.056H646.526C647.246 81.056 647.846 81.296 648.326 81.776C648.806 82.208 649.046 82.784 649.046 83.504C649.046 84.176 648.806 84.752 648.326 85.232C647.846 85.664 647.246 85.88 646.526 85.88H628.166Z" fill="#C8C8C8"/>
<path fill-rule="evenodd" clip-rule="evenodd" d="M62.4511 121.022L118.871 121.022L109.781 112.154L82.6706 74.0322L49.6107 68.2016L70.6924 97.8459L38.6953 97.8459L62.4511 121.022Z" fill="white"/>
<path d="M118.71 120.028L90.9207 54.5254L34.4754 13.4516L73.6959 105.9L118.71 120.028Z" fill="url(#paint0_linear_697_2)"/>
<path d="M124.554 121.446L121.39 74.1025L57.0379 43.2264L105.69 121.446L124.554 121.446Z" fill="url(#paint1_linear_697_2)"/>
<path d="M119.28 120.625L80.9794 66.8112L19.0201 42.3902L73.0767 118.341L119.28 120.625Z" fill="url(#paint2_linear_697_2)"/>
<path d="M110.108 114.503L58.5982 72.4687L-1.13006e-05 55.8149L72.6986 115.14L110.108 114.503Z" fill="url(#paint3_linear_697_2)"/>
<path d="M118.856 120.345L61.592 86.1224L1.12578 78.0194L81.9454 126.32L118.856 120.345Z" fill="url(#paint4_linear_697_2)"/>
<mask id="mask0_697_2" style="mask-type:alpha" maskUnits="userSpaceOnUse" x="138" y="51" width="87" height="86">
<path d="M162.857 61.4427C165.915 54.6401 173.049 50.6246 180.45 51.5402L203.46 54.3868C211.14 55.3369 217.209 61.3542 218.225 69.026L224.14 113.682C225.422 123.358 218.31 132.124 208.578 132.865L156.523 136.828C143.664 137.807 134.44 124.672 139.727 112.908L162.857 61.4427Z" fill="#D9D9D9"/>
</mask>
<g mask="url(#mask0_697_2)">
<path d="M141.948 59.7098L119.33 102.857C118.848 103.779 117.445 103.779 116.963 102.857L94.3447 59.7098C94.1255 59.2704 93.6872 59.0068 93.205 59.0068H82.2467C81.5015 59.0068 81.0193 59.7977 81.37 60.4568L117.007 127.33C117.489 128.253 118.804 128.253 119.33 127.33L154.966 60.4568C155.317 59.7977 154.835 59.0068 154.09 59.0068H143.131C142.605 59.0068 142.167 59.2704 141.948 59.7098Z" fill="white"/>
<path d="M154.791 117.312L177.409 74.1653C177.891 73.2426 179.294 73.2426 179.776 74.1653L202.394 117.312C202.613 117.752 203.051 118.015 203.533 118.015H214.492C215.237 118.015 215.719 117.224 215.368 116.565L179.732 49.692C179.25 48.7693 177.935 48.7693 177.409 49.692L141.772 116.565C141.422 117.224 141.904 118.015 142.649 118.015H153.607C154.089 117.971 154.572 117.708 154.791 117.312Z" fill="white"/>
</g>
<path d="M631.549 132.493L615.724 162.681C615.387 163.327 614.405 163.327 614.068 162.681L598.243 132.493C598.09 132.186 597.783 132.001 597.446 132.001H589.778C589.257 132.001 588.92 132.555 589.165 133.016L614.099 179.804C614.436 180.45 615.356 180.45 615.724 179.804L640.657 133.016C640.903 132.555 640.565 132.001 640.044 132.001H632.377C632.009 132.001 631.702 132.186 631.549 132.493Z" fill="white"/>
<path d="M640.535 172.795L656.359 142.607C656.697 141.962 657.678 141.962 658.016 142.607L673.84 172.795C673.994 173.103 674.301 173.287 674.638 173.287H682.305C682.826 173.287 683.164 172.734 682.918 172.273L657.985 125.484C657.648 124.839 656.728 124.839 656.359 125.484L631.426 172.273C631.181 172.734 631.518 173.287 632.039 173.287H639.707C640.044 173.256 640.381 173.072 640.535 172.795Z" fill="white"/>
<path d="M532.367 154.258C535.679 152.598 537.734 149.001 537.734 144.605C537.734 137.074 531.877 131.971 523.627 131.971H499.92C499.399 131.971 499 132.37 499 132.893V179.343C499 179.866 499.399 180.265 499.92 180.265H522.615C533.962 180.265 539.942 175.377 539.942 165.786C539.942 156.441 532.367 154.258 532.367 154.258ZM507.894 138.98H521.971C527.154 138.98 529.791 141.193 529.791 145.312C529.791 149.432 527.154 151.645 521.971 151.645H507.894C507.403 151.645 506.974 151.245 506.974 150.723V139.902C506.974 139.379 507.372 138.98 507.894 138.98ZM522.155 173.256H507.894C507.372 173.256 506.974 172.857 506.974 172.334V159.515C506.974 159.023 507.372 158.593 507.894 158.593H522.155C528.963 158.593 531.999 160.529 531.999 165.909C531.969 171.35 529.024 173.256 522.155 173.256Z" fill="white"/>
<path d="M581.038 154.258C584.35 152.598 586.405 149.001 586.405 144.605C586.405 137.074 580.547 131.971 572.297 131.971H548.56C548.039 131.971 547.64 132.37 547.64 132.893V179.343C547.64 179.866 548.039 180.265 548.56 180.265H571.255C582.602 180.265 588.582 175.377 588.582 165.786C588.613 156.441 581.038 154.258 581.038 154.258ZM556.565 138.98H570.641C575.824 138.98 578.462 141.193 578.462 145.312C578.462 149.432 575.824 151.645 570.641 151.645H556.565C556.043 151.645 555.645 151.245 555.645 150.723V139.902C555.645 139.379 556.043 138.98 556.565 138.98ZM570.795 173.256H556.534C556.043 173.256 555.614 172.857 555.614 172.334V159.515C555.614 159.023 556.013 158.593 556.534 158.593H570.795C577.603 158.593 580.639 160.529 580.639 165.909C580.639 171.35 577.664 173.256 570.795 173.256Z" fill="white"/>
<defs>
<linearGradient id="paint0_linear_697_2" x1="93.2493" y1="60.0142" x2="60.181" y2="74.0432" gradientUnits="userSpaceOnUse">
<stop stop-color="white"/>
<stop offset="1" stop-color="#C4C4C4" stop-opacity="0"/>
</linearGradient>
<linearGradient id="paint1_linear_697_2" x1="110.128" y1="78.5398" x2="77.0602" y2="92.5688" gradientUnits="userSpaceOnUse">
<stop stop-color="#C2CCFF"/>
<stop offset="1" stop-color="#1838DE" stop-opacity="0"/>
</linearGradient>
<linearGradient id="paint2_linear_697_2" x1="84.1888" y1="71.3206" x2="54.5994" y2="92.3802" gradientUnits="userSpaceOnUse">
<stop stop-color="#C34ACD"/>
<stop offset="1" stop-color="#C8A2CB" stop-opacity="0"/>
</linearGradient>
<linearGradient id="paint3_linear_697_2" x1="62.9145" y1="75.991" x2="47.6484" y2="94.6983" gradientUnits="userSpaceOnUse">
<stop stop-color="#CB64D3"/>
<stop offset="1" stop-color="#C8A2CB" stop-opacity="0"/>
</linearGradient>
<linearGradient id="paint4_linear_697_2" x1="66.3905" y1="88.9901" x2="54.0458" y2="109.646" gradientUnits="userSpaceOnUse">
<stop stop-color="#83C0CD"/>
<stop offset="1" stop-color="#C8A2CB" stop-opacity="0"/>
</linearGradient>
</defs>
</svg>
